PathFileType	4	(X/Y/Z)	OpenSim_static_markers.trc
DataRate	CameraRate	NumFrames	NumMarkers	Units	OrigDataRate	OrigDataStartFrame	OrigNumFrames
100	100	6	39	m	100	1	6
Frame#	Time	APEX	L1MT	L2MT	L5MT	LASI	LCAL	LGTR	LLEP	LLML	LMEP	LMML	LPS1	LPS2	LSH1	LSH2	LSH3	LTH1	LTH2	LTH3	LTTB	R1MT	R2MT	R5MT	RASI	RCAL	RGTR	RLEP	RLML	RMEP	RMML	RPS1	RPS2	RSH1	RSH2	RSH3	RTH1	RTH2	RTH3	RTTB
				X1	Y1	Z1	X2	Y2	Z2	X3	Y3	Z3	X4	Y4	Z4	X5	Y5	Z5	X6	Y6	Z6	X7	Y7	Z7	X8	Y8	Z8	X9	Y9	Z9	X10	Y10	Z10	X11	Y11	Z11	X12	Y12	Z12	X13	Y13	Z13	X14	Y14	Z14	X15	Y15	Z15	X16	Y16	Z16	X17	Y17	Z17	X18	Y18	Z18	X19	Y19	Z19	X20	Y20	Z20	X21	Y21	Z21	X22	Y22	Z22	X23	Y23	Z23	X24	Y24	Z24	X25	Y25	Z25	X26	Y26	Z26	X27	Y27	Z27	X28	Y28	Z28	X29	Y29	Z29	X30	Y30	Z30	X31	Y31	Z31	X32	Y32	Z32	X33	Y33	Z33	X34	Y34	Z34	X35	Y35	Z35	X36	Y36	Z36	X37	Y37	Z37	X38	Y38	Z38	X39		Y39	Z39	

1	0	0.96297300	1.58627700	-0.53898400	0.84360200	0.06513000	-0.60452500	0.84368900	0.06013600	-0.65380000	0.80718200	0.04421200	-0.69992700	0.80472300	0.95401300	-0.64650100	0.63623400	0.07506100	-0.64690400	0.70410300	0.87979600	-0.69932100	0.76197500	0.49328100	-0.67782400	0.69996400	0.09159300	-0.68158300	0.79276000	0.48748400	-0.56841700	0.71052600	0.10179900	-0.59614000	0.62380000	1.03687700	-0.53143500	0.59732300	0.96998200	-0.53172000	0.70576200	0.43519500	-0.69127400	0.68635200	0.33305600	-0.70201300	0.74380500	0.32030600	-0.69527600	0.73002700	0.80322600	-0.71971700	0.73904100	0.69964600	-0.71322200	0.79507800	0.70663900	-0.69260400	0.78562200	0.40856500	-0.63768700	0.86047600	0.05665400	-0.39073100	0.85856000	0.06402100	-0.33437700	0.82202800	0.04738400	-0.28976900	0.80130400	0.95421500	-0.36305700	0.65547500	0.07353400	-0.36989700	0.69346000	0.87852500	-0.30610200	0.77955400	0.49576400	-0.33701600	0.72022900	0.09331700	-0.32259700	0.79491400	0.48636700	-0.43701500	0.73584700	0.10575400	-0.40772700	0.62540400	1.04116800	-0.48157700	0.59864100	0.96898700	-0.46408000	0.77076200	0.42991300	-0.32302800	0.75927200	0.32827800	-0.30590900	0.70062800	0.33532700	-0.29750900	0.78002900	0.80669500	-0.30400800	0.78631100	0.70225300	-0.31242300	0.72868300	0.69803400	-0.29988600	0.79633400	0.41118600	-0.37367500
2	0.01000000	0.96271600	1.58659000	-0.53654600	0.84360300	0.06493400	-0.60437300	0.84349500	0.06067600	-0.65418600	0.80717100	0.04425300	-0.69994400	0.80481800	0.95435300	-0.64448100	0.63622900	0.07513000	-0.64683600	0.70386500	0.88011000	-0.69692200	0.76181900	0.49361900	-0.67684100	0.69994300	0.09178200	-0.68151800	0.79292600	0.48750400	-0.56728100	0.71067600	0.10192900	-0.59603200	0.62448300	1.03690000	-0.52830100	0.59773100	0.97005000	-0.52862400	0.70556500	0.43548400	-0.69011500	0.68611000	0.33347700	-0.70114300	0.74356500	0.32063300	-0.69462100	0.72951500	0.80347900	-0.71740700	0.73839600	0.69969100	-0.71106700	0.79462200	0.70687200	-0.69086500	0.78558300	0.40876300	-0.63698800	0.86038600	0.05670400	-0.39071700	0.85846700	0.06412400	-0.33439900	0.82202200	0.04737700	-0.28974000	0.80199100	0.95397300	-0.36070000	0.65542400	0.07334100	-0.36969900	0.69444600	0.87823300	-0.30396400	0.78011200	0.49556300	-0.33565200	0.72022900	0.09316300	-0.32239100	0.79470700	0.48636400	-0.43561700	0.73561200	0.10568900	-0.40751200	0.62575100	1.04116200	-0.47886800	0.59891400	0.96902100	-0.46111800	0.77118900	0.42944700	-0.32180700	0.75974100	0.32767500	-0.30507800	0.70113700	0.33484200	-0.29627800	0.78158800	0.80686300	-0.30189700	0.78694900	0.70192600	-0.31058400	0.72953200	0.69791800	-0.29800400	0.79642500	0.41078200	-0.37264200
3	0.02000000	0.96243900	1.58692800	-0.53405200	0.84364800	0.06534400	-0.60457700	0.84349800	0.06080300	-0.65440100	0.80716000	0.04427200	-0.69994200	0.80460900	0.95434600	-0.64234000	0.63624400	0.07522800	-0.64677800	0.70308900	0.88030600	-0.69454100	0.76186000	0.49391800	-0.67574300	0.69993100	0.09200700	-0.68148200	0.79310800	0.48747300	-0.56627900	0.71081200	0.10209500	-0.59593100	0.62437300	1.03674000	-0.52587900	0.59804000	0.97013000	-0.52581300	0.70546900	0.43579100	-0.68902400	0.68594800	0.33380200	-0.70030800	0.74343100	0.32103400	-0.69400500	0.72915500	0.80393100	-0.71531300	0.73792100	0.70008300	-0.70913100	0.79430700	0.70701300	-0.68958700	0.78572100	0.40890000	-0.63624800	0.86030200	0.05673300	-0.39070200	0.85832400	0.06416200	-0.33445800	0.82198900	0.04739800	-0.28967900	0.80286300	0.95375900	-0.35858100	0.65535800	0.07312700	-0.36944100	0.69553900	0.87790000	-0.30131100	0.78049800	0.49523100	-0.33453600	0.72019400	0.09296900	-0.32220700	0.79465100	0.48666900	-0.43447700	0.73535600	0.10560400	-0.40729800	0.62641700	1.04097200	-0.47573200	0.59941800	0.96907600	-0.45834500	0.77163600	0.42897600	-0.32073700	0.76030900	0.32716800	-0.30423800	0.70174800	0.33430300	-0.29491500	0.78089100	0.80501800	-0.29997900	0.78765300	0.70143400	-0.30870300	0.73046200	0.69767400	-0.29624000	0.79636200	0.41038600	-0.37179200
4	0.03000000	0.96215800	1.58723800	-0.53149800	0.84365500	0.06546200	-0.60472900	0.84355700	0.06080300	-0.65437300	0.80715400	0.04430600	-0.69994200	0.80458200	0.95460700	-0.64023200	0.63625800	0.07534100	-0.64668500	0.70293500	0.88069400	-0.69235600	0.76193800	0.49417200	-0.67498700	0.69994800	0.09235900	-0.68143500	0.79341800	0.48742700	-0.56524300	0.71096900	0.10227100	-0.59587300	0.62518900	1.03649400	-0.52307500	0.59871400	0.97007200	-0.52275800	0.70549400	0.43620900	-0.68803600	0.68591600	0.33424900	-0.69960400	0.74348600	0.32143000	-0.69352600	0.72873600	0.80424200	-0.71310500	0.73782300	0.70083600	-0.70763200	0.79441700	0.70739100	-0.68778300	0.78604000	0.40914900	-0.63551700	0.86022100	0.05676800	-0.39067300	0.85826000	0.06418700	-0.33443800	0.82194100	0.04738000	-0.28963500	0.80385100	0.95354400	-0.35652600	0.65529600	0.07291500	-0.36917400	0.69656900	0.87744800	-0.29905800	0.78069700	0.49479300	-0.33337100	0.72019000	0.09272200	-0.32195800	0.79400400	0.48642200	-0.43318900	0.73505700	0.10548600	-0.40707500	0.62683400	1.04094300	-0.47295700	0.59982700	0.96911700	-0.45534500	0.77202500	0.42822500	-0.31956700	0.76092400	0.32675800	-0.30340600	0.70241400	0.33367100	-0.29361700	0.78099600	0.80432000	-0.29802700	0.78835900	0.70065600	-0.30692700	0.73129100	0.69728500	-0.29445500	0.79656500	0.41028800	-0.37096200
5	0.04000000	0.96182000	1.58755300	-0.52895200	0.84367000	0.06550500	-0.60473200	0.84359400	0.06073200	-0.65423300	0.80715200	0.04434200	-0.69994300	0.80405600	0.95483000	-0.63798300	0.63628600	0.07545800	-0.64665300	0.70271400	0.88118800	-0.68994500	0.76219000	0.49474300	-0.67429300	0.69984000	0.09224400	-0.68130600	0.79380100	0.48739600	-0.56438900	0.71114200	0.10252600	-0.59594300	0.62524000	1.03662600	-0.52020900	0.59913000	0.97007800	-0.52000300	0.70579300	0.43662700	-0.68723900	0.68608000	0.33473500	-0.69907700	0.74360300	0.32182000	-0.69319000	0.72841700	0.80473400	-0.71109900	0.73770100	0.70128700	-0.70612900	0.79425600	0.70787600	-0.68615900	0.78645500	0.40939900	-0.63505800	0.86011900	0.05679900	-0.39067100	0.85818300	0.06413100	-0.33441300	0.82190600	0.04737000	-0.28960100	0.80458400	0.95293400	-0.35422200	0.65519500	0.07269100	-0.36895000	0.69746900	0.87708700	-0.29706400	0.78112100	0.49449200	-0.33209400	0.72026700	0.09237200	-0.32166500	0.79372600	0.48673700	-0.43205200	0.73448400	0.10493400	-0.40657600	0.62755500	1.04097400	-0.46997000	0.60067900	0.96891500	-0.45264200	0.77244000	0.42769600	-0.31843700	0.76130500	0.32612000	-0.30253700	0.70308600	0.33312400	-0.29217100	0.78225800	0.80412400	-0.29601500	0.78925300	0.70016600	-0.30520000	0.73194900	0.69698100	-0.29251800	0.79675300	0.41024000	-0.36998900
6	0.05000000	0.96143500	1.58784600	-0.52646000	0.84371500	0.06554700	-0.60470500	0.84365300	0.06056700	-0.65401600	0.80716300	0.04438400	-0.69995200	0.80378500	0.95503200	-0.63604000	0.63628400	0.07558800	-0.64663300	0.70253300	0.88162900	-0.68781100	0.76260300	0.49499100	-0.67358000	0.69980600	0.09239000	-0.68133300	0.79443300	0.48750600	-0.56361100	0.71128300	0.10280400	-0.59601200	0.62582400	1.03669000	-0.51733000	0.59916500	0.97027900	-0.51746000	0.70631600	0.43709000	-0.68660800	0.68641900	0.33527800	-0.69859600	0.74388100	0.32223800	-0.69291100	0.72815500	0.80517800	-0.70906500	0.73768400	0.70181200	-0.70461000	0.79425100	0.70824700	-0.68467500	0.78702800	0.40963900	-0.63470500	0.86004600	0.05683800	-0.39067600	0.85809400	0.06408700	-0.33440900	0.82177200	0.04718900	-0.28952700	0.80549200	0.95256000	-0.35208900	0.65511600	0.07248900	-0.36869800	0.69844100	0.87675400	-0.29462700	0.78117300	0.49412500	-0.33077500	0.72026000	0.09189800	-0.32133900	0.79298300	0.48649600	-0.43078700	0.73414800	0.10479900	-0.40625900	0.62789500	1.04109100	-0.46716500	0.60104500	0.96911200	-0.44956300	0.77307900	0.42751400	-0.31713600	0.76178500	0.32548200	-0.30150800	0.70347200	0.33246400	-0.29086600	0.78372000	0.80388000	-0.29418300	0.79000700	0.69974300	-0.30350900	0.73255500	0.69658100	-0.29060600	0.79661000	0.40991200	-0.36911400
